<svg xmlns="http://www.w3.org/2000/svg" viewBox="0 0 574.12 597.73"><defs><style>.cls-1{fill:#52b9d1;}.cls-2{fill:#ddd;}.cls-3{fill:#ececec;}.cls-4{fill:#e88154;}.cls-5{fill:#c6c6c6;}</style></defs><title>book4</title><g id="Layer_2" data-name="Layer 2"><g id="Layer_1-2" data-name="Layer 1"><path class="cls-1" d="M390,88.22,554.26,346.7a8.69,8.69,0,0,1-2.67,12L177.64,596.37a8.69,8.69,0,0,1-12-2.67L1.36,335.22a8.69,8.69,0,0,1,2.67-12L180.92,210.79a38,38,0,0,1,8.68-.14l5.76.58,2.31-6.51a34.85,34.85,0,0,1,3.15-6.58L378,85.54A8.7,8.7,0,0,1,390,88.22Z"/><path class="cls-1" d="M394.28,458.68c-13.58,21.65-32.16,34.27-56.74,36.06L163.93,221.59c24.31-2.23,42.9-14.83,56.74-36.06Z"/><polyline class="cls-2" points="302.28 129.43 376.06 82.53 544.18 347.03 472.27 392.73"/><polyline class="cls-2" points="296.1 504.71 171.25 584.06 3.13 319.56 129.27 239.39"/><path class="cls-3" d="M472.28,392.73,386.87,447A77.41,77.41,0,0,1,373,464.84,65.39,65.39,0,0,1,349.55,479a78.66,78.66,0,0,1-19.42,4.05l-94,59.75L68.68,277.91l96.78-61.52a37.85,37.85,0,0,1,13.72-5.33c.57-.1,1.16-.19,1.73-.27a38,38,0,0,1,8.68-.14l5.76.58,2.31-6.51a34.85,34.85,0,0,1,3.15-6.58c.42-.69.87-1.37,1.34-2a35,35,0,0,1,9.76-9.26l90.35-57.43Z"/><path class="cls-2" d="M202.16,196.12,373,464.84A65.39,65.39,0,0,1,349.55,479h0L179.2,211.09c.58-.09,1.18-.16,1.77-.22a37.73,37.73,0,0,1,8.93.26l6,.89,2.07-6.88a34.81,34.81,0,0,1,2.94-6.92C201.27,197.51,201.71,196.81,202.16,196.12Z"/><path class="cls-4" d="M408.47,5.68,572.76,264.17a8.69,8.69,0,0,1-2.67,12L196.14,513.84a8.69,8.69,0,0,1-12-2.67L19.85,252.69a8.69,8.69,0,0,1,2.67-12L199.42,128.26a38,38,0,0,1,8.68-.14l5.76.58,2.31-6.51a34.85,34.85,0,0,1,3.15-6.58L396.47,3A8.7,8.7,0,0,1,408.47,5.68Z"/><path class="cls-4" d="M412.78,376.15c-13.58,21.65-32.16,34.27-56.74,36.06L182.43,139.06c24.31-2.23,42.9-14.83,56.74-36.06Z"/><polyline class="cls-2" points="320.77 46.9 394.56 0 562.67 264.5 490.77 310.2"/><path class="cls-3" d="M490.77,310.2l-85.41,54.28a77.41,77.41,0,0,1-13.91,17.82A65.39,65.39,0,0,1,368,396.5a78.66,78.66,0,0,1-19.42,4.05l-94,59.75L87.17,195.38,184,133.86a37.85,37.85,0,0,1,13.72-5.33c.57-.1,1.16-.19,1.73-.27a38,38,0,0,1,8.68-.14l5.76.58,2.31-6.51a34.85,34.85,0,0,1,3.15-6.58c.42-.69.87-1.37,1.34-2a35,35,0,0,1,9.76-9.26L320.77,46.9Z"/><polyline class="cls-2" points="267.78 451.94 189.75 501.53 21.63 237.03 100.47 186.92"/><rect class="cls-5" x="45.85" y="202.69" width="171.55" height="9.12" transform="translate(-90.63 102.95) rotate(-32.44)"/><rect class="cls-5" x="58.03" y="221.85" width="171.55" height="9.12" transform="translate(-99.01 112.47) rotate(-32.44)"/><rect class="cls-5" x="70.2" y="241" width="171.55" height="9.12" transform="translate(-107.38 121.99) rotate(-32.44)"/><rect class="cls-5" x="82.38" y="260.15" width="171.55" height="9.12" transform="translate(-115.76 131.51) rotate(-32.44)"/><rect class="cls-5" x="94.55" y="279.31" width="171.55" height="9.12" transform="translate(-124.13 141.03) rotate(-32.44)"/><rect class="cls-5" x="106.72" y="298.46" width="171.55" height="9.12" transform="translate(-132.51 150.55) rotate(-32.44)"/><rect class="cls-5" x="118.9" y="317.62" width="171.55" height="9.12" transform="translate(-140.88 160.07) rotate(-32.44)"/><rect class="cls-5" x="131.07" y="336.77" width="171.55" height="9.12" transform="translate(-149.26 169.59) rotate(-32.44)"/><rect class="cls-5" x="143.25" y="355.92" width="171.55" height="9.12" transform="translate(-157.63 179.1) rotate(-32.44)"/><rect class="cls-5" x="155.42" y="375.08" width="171.55" height="9.12" transform="translate(-166.01 188.62) rotate(-32.44)"/><rect class="cls-5" x="167.59" y="394.23" width="171.55" height="9.12" transform="translate(-174.38 198.14) rotate(-32.44)"/><rect class="cls-5" x="179.77" y="413.38" width="171.55" height="9.12" transform="translate(-182.75 207.66) rotate(-32.44)"/><rect class="cls-5" x="235.76" y="81.99" width="171.55" height="9.12" transform="translate(3.75 185.98) rotate(-32.44)"/><rect class="cls-5" x="247.93" y="101.14" width="171.55" height="9.12" transform="translate(-4.63 195.5) rotate(-32.44)"/><rect class="cls-5" x="260.11" y="120.3" width="171.55" height="9.12" transform="translate(-13 205.02) rotate(-32.44)"/><rect class="cls-5" x="272.28" y="139.45" width="171.55" height="9.12" transform="translate(-21.38 214.54) rotate(-32.44)"/><rect class="cls-5" x="284.45" y="158.6" width="171.55" height="9.12" transform="matrix(0.84, -0.54, 0.54, 0.84, -29.75, 224.06)"/><rect class="cls-5" x="296.63" y="177.76" width="171.55" height="9.12" transform="translate(-38.13 233.58) rotate(-32.44)"/><rect class="cls-5" x="308.8" y="196.91" width="171.55" height="9.12" transform="translate(-46.5 243.1) rotate(-32.44)"/><rect class="cls-5" x="320.98" y="216.07" width="171.55" height="9.12" transform="translate(-54.87 252.62) rotate(-32.44)"/><rect class="cls-5" x="333.15" y="235.22" width="171.55" height="9.12" transform="translate(-63.25 262.14) rotate(-32.44)"/><rect class="cls-5" x="345.32" y="254.37" width="171.55" height="9.12" transform="translate(-71.62 271.66) rotate(-32.44)"/><rect class="cls-5" x="357.5" y="273.53" width="171.55" height="9.12" transform="translate(-80 281.18) rotate(-32.44)"/><rect class="cls-5" x="369.67" y="292.68" width="171.55" height="9.12" transform="translate(-88.37 290.69) rotate(-32.44)"/><path class="cls-2" d="M220.66,113.59l170.8,268.72A65.39,65.39,0,0,1,368,396.5h0L197.7,128.56c.58-.09,1.18-.16,1.77-.22a37.73,37.73,0,0,1,8.93.26l6,.89,2.07-6.88a34.81,34.81,0,0,1,2.94-6.92C219.77,115,220.2,114.27,220.66,113.59Z"/></g></g></svg>