<svg xmlns="http://www.w3.org/2000/svg" viewBox="0 0 278 98.98"><defs><style>.cls-1{fill:#e88154;}.cls-2{fill:#d36b46;}.cls-10,.cls-3{fill:#fff;}.cls-3,.cls-9{opacity:0.62;}.cls-4{fill:#727272;}.cls-5{fill:#52b9d1;}.cls-6{fill:#3a9faf;}.cls-7{fill:#f8cc45;}.cls-8{fill:#efb745;}</style></defs><title>Bookshelf_NewTrade1</title><g id="Layer_2" data-name="Layer 2"><g id="Layer_1-2" data-name="Layer 1"><path class="cls-1" d="M74.61,12.6H87.23a3.16,3.16,0,0,1,3.16,3.16v63.1A3.15,3.15,0,0,1,87.23,82H74.61a3.15,3.15,0,0,1-3.16-3.16V15.76A3.16,3.16,0,0,1,74.61,12.6Z"/><path class="cls-2" d="M77.76,78.86V15.76a3.16,3.16,0,0,1,3.16-3.16H74.61a3.16,3.16,0,0,0-3.16,3.16v63.1A3.15,3.15,0,0,0,74.61,82h6.31A3.15,3.15,0,0,1,77.76,78.86Z"/><path class="cls-3" d="M80.8,29h4.79V70.65H80.8Z"/><rect class="cls-4" y="76.98" width="278" height="22"/><path class="cls-5" d="M174.63,13.35h12.62a3.16,3.16,0,0,1,3.16,3.16v63.1a3.15,3.15,0,0,1-3.16,3.16H174.63a3.15,3.15,0,0,1-3.16-3.16V16.51A3.16,3.16,0,0,1,174.63,13.35Z"/><path class="cls-6" d="M177.79,79.61V16.51a3.16,3.16,0,0,1,3.16-3.16h-6.31a3.16,3.16,0,0,0-3.16,3.16v63.1a3.15,3.15,0,0,0,3.16,3.16h6.31A3.15,3.15,0,0,1,177.79,79.61Z"/><path class="cls-3" d="M180.82,29.8h4.79V71.41h-4.79Z"/><path class="cls-7" d="M193.56.73h18.93a3.16,3.16,0,0,1,3.16,3.16V79.61a3.15,3.15,0,0,1-3.16,3.16H193.56a3.15,3.15,0,0,1-3.16-3.16V3.89A3.16,3.16,0,0,1,193.56.73Z"/><path class="cls-1" d="M218.13,22.45l18.22-5.14a3.16,3.16,0,0,1,3.89,2.18l15.42,54.66A3.15,3.15,0,0,1,253.49,78l-18.22,5.14A3.15,3.15,0,0,1,231.37,81L216,26.34A3.16,3.16,0,0,1,218.13,22.45Z"/><path class="cls-8" d="M196.72,79.61V3.89A3.16,3.16,0,0,1,199.87.73h-6.31a3.16,3.16,0,0,0-3.16,3.16V79.61a3.15,3.15,0,0,0,3.16,3.16h6.31A3.15,3.15,0,0,1,196.72,79.61Z"/><path class="cls-2" d="M237.45,79.29,222,24.63a3.16,3.16,0,0,1,2.18-3.89l-6.07,1.71A3.16,3.16,0,0,0,216,26.34L231.37,81a3.15,3.15,0,0,0,3.89,2.18l6.07-1.71A3.15,3.15,0,0,1,237.45,79.29Z"/><path class="cls-3" d="M223.66,53.67,248,46.82l-3.43-12.15-24.29,6.85Zm-5.14-18.22.86,3,24.29-6.85-.86-3Z"/><path class="cls-3" d="M190.4,70.15h25.14V60.63H190.4Z"/><g class="cls-9"><rect class="cls-10" x="218.83" y="34.53" width="6.31" height="3.16" transform="translate(-1.47 61.63) rotate(-15.75)"/><rect class="cls-10" x="221.83" y="40.43" width="6.31" height="12.62" transform="translate(-4.24 62.84) rotate(-15.75)"/></g><path class="cls-7" d="M40.13,2.32,49.44,0c.86-.21,1.89,1,2.31,2.69L69.88,76.22c.42,1.69.06,3.23-.8,3.45L59.78,82c-.86.21-1.89-1-2.31-2.68L39.34,5.77C38.92,4.08,39.27,2.53,40.13,2.32Z"/><path class="cls-8" d="M60.57,78.52,42.44,5c-.42-1.69-.06-3.24.79-3.45l-3.1.77c-.86.21-1.21,1.76-.79,3.45L57.47,79.29c.42,1.69,1.45,2.89,2.31,2.68l3.1-.77C62,81.41,61,80.21,60.57,78.52Z"/><path class="cls-3" d="M55.2,70.1l12.36-3-2.28-9.24-12.36,3Z"/><path class="cls-5" d="M33,39.23l12.59.13a2.1,2.1,0,0,1,2.08,2.12l-.38,37.78a2.1,2.1,0,0,1-2.12,2.08l-12.59-.13a2.1,2.1,0,0,1-2.08-2.12l.38-37.78A2.1,2.1,0,0,1,33,39.23Z"/><path class="cls-6" d="M34.65,79.13,35,41.35a2.1,2.1,0,0,1,2.12-2.08l-4.2,0a2.1,2.1,0,0,0-2.12,2.08l-.38,37.78a2.1,2.1,0,0,0,2.08,2.12l4.2,0A2.1,2.1,0,0,1,34.65,79.13Z"/><path class="cls-3" d="M30.65,60.2l16.79.17.08-8.4L30.73,51.8Zm.13-12.59,0,2.1,16.79.17,0-2.1Z"/><g class="cls-9"><rect class="cls-10" x="31.81" y="46.58" width="2.1" height="4.2" transform="translate(-16.14 81.05) rotate(-89.43)"/><rect class="cls-10" x="28.59" y="53.92" width="8.4" height="4.2" transform="translate(-23.56 88.25) rotate(-89.43)"/></g><path class="cls-7" d="M111.7,34.15l8.43,2.5a2.2,2.2,0,0,1,1.48,2.74L109.13,81.54A2.2,2.2,0,0,1,106.4,83L98,80.53a2.2,2.2,0,0,1-1.48-2.73L109,35.64A2.2,2.2,0,0,1,111.7,34.15Z"/><path class="cls-8" d="M100.7,79l12.49-42.16a2.2,2.2,0,0,1,2.73-1.49l-4.22-1.25A2.2,2.2,0,0,0,109,35.64L96.48,77.79A2.2,2.2,0,0,0,98,80.53l4.22,1.25A2.2,2.2,0,0,1,100.7,79Z"/><path class="cls-1" d="M122.91,13.2H132c.84,0,1.52,1.2,1.52,2.68V80.1c0,1.48-.68,2.68-1.52,2.68h-9.11c-.84,0-1.52-1.2-1.52-2.68V15.88C121.39,14.4,122.07,13.2,122.91,13.2Z"/><path class="cls-7" d="M135.54,38.94l13.19-.1A2.2,2.2,0,0,1,150.95,41l.29,39.57a2.2,2.2,0,0,1-2.18,2.21l-13.19.1a2.2,2.2,0,0,1-2.21-2.18l-.29-39.57A2.2,2.2,0,0,1,135.54,38.94Z"/><path class="cls-2" d="M125.79,80.1V15.88A2.48,2.48,0,0,1,128,13.2h-4.4a2.47,2.47,0,0,0-2.2,2.68V80.1a2.47,2.47,0,0,0,2.2,2.68H128A2.47,2.47,0,0,1,125.79,80.1Z"/><path class="cls-8" d="M138,80.69l-.29-39.57a2.2,2.2,0,0,1,2.18-2.21l-4.4,0a2.2,2.2,0,0,0-2.18,2.21l.29,39.57a2.2,2.2,0,0,0,2.21,2.18l4.4,0A2.2,2.2,0,0,1,138,80.69Z"/><path class="cls-3" d="M141.93,44.24l0,5.4,5.37,0,0-5.4Z"/><path class="cls-3" d="M141.93,53.05l.19,26.48,5.37,0L147.3,53Z"/><path class="cls-3" d="M121.39,27.22h12.15V20.48H121.39Z"/><path class="cls-5" d="M152.89,27.07l13.7-.15A2.21,2.21,0,0,1,168.9,29l.56,51.12a2.21,2.21,0,0,1-2.26,2.16l-13.7.15a2.21,2.21,0,0,1-2.31-2.11l-.56-51.13A2.21,2.21,0,0,1,152.89,27.07Z"/><path class="cls-6" d="M157.81,80.28l-.56-51.13c0-1.18,1.46-2.15,3.28-2.17l-6.62.07c-1.83,0-3.3,1-3.28,2.17l.56,51.13c0,1.18,1.5,2.11,3.33,2.09l6.62-.07C159.31,82.4,157.82,81.46,157.81,80.28Z"/><path class="cls-3" d="M150.72,38.26l18.28-.2-.06-5.36-18.28.2Z"/><path class="cls-3" d="M121.39,36h12.15V29.3H121.39Z"/><path class="cls-3" d="M121.39,69h12.15V62.26H121.39Z"/><path class="cls-3" d="M121.39,77.81h12.15V71.08H121.39Z"/><rect class="cls-3" x="102.42" y="56.61" width="12.98" height="4.6" transform="matrix(0.96, 0.28, -0.28, 0.96, 21.07, -28.36)"/></g></g></svg>