<svg xmlns="http://www.w3.org/2000/svg" viewBox="0 0 173.92 84.36"><defs><style>.cls-1{fill:#727272;}.cls-2{fill:#52b9d1;}.cls-3{fill:#3a9faf;}.cls-4,.cls-6{fill:#fff;}.cls-4,.cls-5{opacity:0.62;}.cls-7{fill:#f8cc45;}.cls-8{fill:#efb745;}.cls-9{fill:#e88154;}.cls-10{fill:#d36b46;}</style></defs><title>Bookshelf_NewTrade2</title><g id="Layer_2" data-name="Layer 2"><g id="Layer_1-2" data-name="Layer 1"><rect class="cls-1" y="62.72" width="173.92" height="21.63"/><path class="cls-2" d="M133.72,26.37l-12.38.12a2.06,2.06,0,0,0-2,2.08l.37,37.15a2.06,2.06,0,0,0,2.08,2l12.38-.12a2.06,2.06,0,0,0,2-2.08l-.37-37.15A2.06,2.06,0,0,0,133.72,26.37Z"/><path class="cls-3" d="M132,65.61l-.37-37.15a2.06,2.06,0,0,0-2.08-2l4.13,0a2.06,2.06,0,0,1,2.08,2l.37,37.15a2.06,2.06,0,0,1-2,2.08l-4.13,0A2.06,2.06,0,0,0,132,65.61Z"/><path class="cls-4" d="M135.9,38.74l-16.51.16.08,8.26L136,47Zm-16.55-4,0,2.07,16.51-.16,0-2.07Z"/><g class="cls-5"><rect class="cls-6" x="131.75" y="34.63" width="4.13" height="2.07" transform="translate(-0.35 1.34) rotate(-0.57)"/><rect class="cls-6" x="131.82" y="38.76" width="4.13" height="8.26" transform="translate(-0.42 1.34) rotate(-0.57)"/></g><path class="cls-7" d="M51.28,20.6l8.29,2.46A2.16,2.16,0,0,1,61,25.75L48.75,67.21a2.16,2.16,0,0,1-2.69,1.46l-8.29-2.46a2.16,2.16,0,0,1-1.46-2.69L48.59,22.06A2.16,2.16,0,0,1,51.28,20.6Z"/><path class="cls-8" d="M40.46,64.75,52.73,23.29a2.16,2.16,0,0,1,2.69-1.46L51.28,20.6a2.16,2.16,0,0,0-2.69,1.46L36.31,63.52a2.16,2.16,0,0,0,1.46,2.69l4.15,1.23A2.16,2.16,0,0,1,40.46,64.75Z"/><path class="cls-9" d="M62.3,0h9c.83,0,1.49,1.18,1.49,2.64V65.79c0,1.46-.67,2.63-1.49,2.63h-9c-.83,0-1.49-1.18-1.49-2.63V2.63C60.81,1.18,61.48,0,62.3,0Z"/><path class="cls-10" d="M65.13,65.79V2.63A2.43,2.43,0,0,1,67.29,0H63a2.43,2.43,0,0,0-2.16,2.63V65.79A2.43,2.43,0,0,0,63,68.42h4.32A2.43,2.43,0,0,1,65.13,65.79Z"/><path class="cls-7" d="M92.47,28.28l12.35-4a2.16,2.16,0,0,1,2.72,1.4l11.88,37.06a2.16,2.16,0,0,1-1.4,2.72l-12.35,4a2.16,2.16,0,0,1-2.72-1.4L91.07,31A2.16,2.16,0,0,1,92.47,28.28Z"/><path class="cls-8" d="M107.07,66.73,95.19,29.68A2.16,2.16,0,0,1,96.59,27l-4.12,1.32A2.16,2.16,0,0,0,91.07,31L103,68.05a2.16,2.16,0,0,0,2.72,1.4l4.12-1.32A2.16,2.16,0,0,1,107.07,66.73Z"/><path class="cls-4" d="M100,31.38l1.62,5.05,5-1.61L105,29.76Z"/><path class="cls-4" d="M102.6,39.65l7.95,24.79,5-1.61L107.63,38Z"/><path class="cls-4" d="M60.8,13.79H72.75V7.16H60.8Z"/><path class="cls-2" d="M74.74,13.65l13.48-.15a2.18,2.18,0,0,1,2.27,2.07L91,65.85A2.17,2.17,0,0,1,88.81,68l-13.48.15A2.17,2.17,0,0,1,73.06,66l-.55-50.28A2.18,2.18,0,0,1,74.74,13.65Z"/><path class="cls-3" d="M79.57,66,79,15.7c0-1.16,1.43-2.11,3.23-2.13l-6.51.07c-1.8,0-3.24,1-3.23,2.13L73.06,66c0,1.16,1.48,2.08,3.28,2.06L82.85,68C81,68.05,79.58,67.13,79.57,66Z"/><path class="cls-4" d="M72.6,24.64l18-.2-.06-5.27-18,.2Z"/><path class="cls-4" d="M60.8,22.45H72.75V15.83H60.8Z"/><path class="cls-4" d="M60.8,54.87H72.75V48.25H60.8Z"/><path class="cls-4" d="M60.8,63.54H72.75V56.92H60.8Z"/><rect class="cls-4" x="42.15" y="42.69" width="12.76" height="4.52" transform="translate(14.67 -11.87) rotate(16.4)"/></g></g></svg>