<svg xmlns="http://www.w3.org/2000/svg" viewBox="0 0 91.31 54.92"><defs><style>.cls-1,.cls-2{fill:#fff;}.cls-1,.cls-3{stroke:#335598;stroke-miterlimit:10;stroke-width:1.7px;}.cls-3{fill:#335598;}</style></defs><title>logo_navbar</title><g id="Layer_2" data-name="Layer 2"><g id="Layer_1-2" data-name="Layer 1"><path class="cls-1" d="M18.67,27.45c0,5.94,3.66,10,9,10s9-4,9-10l17.69,0c0,15.9-10.66,26.42-26.74,26.42S.85,43.26.85,27.45"/><path class="cls-1" d="M63.6.85c-7.24,0-13.41,2.15-18,6-5.44,4.52-8.67,11.37-8.86,19.77,0,.26,0,.51,0,.77,0,.06,0,.11,0,.16C36.8,43.18,47.5,53.69,63.44,53.75h.16c16.08,0,26.86-10.6,26.86-26.5S79.68.85,63.6.85Zm0,36.46h-.14c-5.32-.07-8.91-4.07-8.91-10,0-.25,0-.51,0-.75.29-5.62,3.86-9.3,9-9.3,5.39,0,9,4,9,10S69,37.31,63.6,37.31Z"/><path class="cls-1" d="M70.42,45.44l-7,8.32h0l0,0c-15.87-.07-26.53-10-26.69-25.54,0-.1,0-.21,0-.31s0-.36,0-.47,0-.18,0-.28,0-.39,0-.58c-.3-5.51-3.87-9.18-9-9.18-5.38,0-9,4.08-9,10.1l-17.82,0C.85,11.55,11.63,1,27.71,1,34.89,1,41,3.07,45.6,6.81c5.51,4.5,8.79,11.38,9,19.79,0,.24,0,.5,0,.75,0,5.89,3.59,9.89,8.91,10Z"/><path class="cls-2" d="M26.76,36.95V53C11.65,52.5,1.61,42.33,1.61,27.31H19C19,32.68,22.11,36.43,26.76,36.95Z"/><path class="cls-2" d="M26.76,1.84V17.71C22.11,18.22,19,22,19,27.36l-17.42,0C1.61,12.38,11.65,2.31,26.76,1.84Z"/><path class="cls-3" d="M27.64,37.6H27.5c-5.35-.07-9-4.13-9-10.1,0-.26,0-.51,0-.76.29-5.7,3.88-9.44,9.08-9.44,5.42,0,9.1,4.08,9.1,10.1s-3.67,10.2-9.1,10.2"/></g></g></svg>