<svg xmlns="http://www.w3.org/2000/svg" xmlns:xlink="http://www.w3.org/1999/xlink" viewBox="0 0 745.85 403.44"><defs><style>.cls-1,.cls-10{fill:#325ca0;}.cls-11,.cls-2{fill:#fff;}.cls-3{fill:none;}.cls-4{fill:url(#linear-gradient);}.cls-5{fill:url(#linear-gradient-2);}.cls-6{fill:url(#linear-gradient-3);}.cls-7{fill:url(#linear-gradient-4);}.cls-10,.cls-11,.cls-8,.cls-9{stroke:#fff;stroke-miterlimit:10;}.cls-10,.cls-11,.cls-8{stroke-width:7.6px;}.cls-8{fill:url(#linear-gradient-5);}.cls-9{stroke-width:5.07px;fill:url(#linear-gradient-6);}.cls-12{font-size:35.2px;fill:#429bcd;font-family:Lato-Medium, Lato;}.cls-13{letter-spacing:0em;}.cls-14{letter-spacing:-0.01em;}.cls-15{letter-spacing:0em;}.cls-16{letter-spacing:-0.02em;}.cls-17{letter-spacing:-0.01em;}.cls-18{letter-spacing:-0.02em;}.cls-19{letter-spacing:-0.02em;}.cls-20{letter-spacing:0em;}</style><linearGradient id="linear-gradient" x1="104.55" y1="241.46" x2="339.7" y2="241.46" gradientTransform="translate(-3.6 3.46) rotate(-0.07)" gradientUnits="userSpaceOnUse"><stop offset="0" stop-color="#429bcd"/><stop offset="0.25" stop-color="#439dc9"/><stop offset="0.46" stop-color="#47a5bf"/><stop offset="0.67" stop-color="#4eb1ad"/><stop offset="0.87" stop-color="#58c293"/><stop offset="1" stop-color="#60d17e"/></linearGradient><linearGradient id="linear-gradient-2" x1="300.39" y1="183.19" x2="496.72" y2="183.19" gradientTransform="translate(-3.6 3.46) rotate(-0.07)" gradientUnits="userSpaceOnUse"><stop offset="0" stop-color="#429bcd"/><stop offset="0.06" stop-color="#45a1c5"/><stop offset="0.31" stop-color="#51b6a6"/><stop offset="0.55" stop-color="#59c590"/><stop offset="0.79" stop-color="#5ece83"/><stop offset="1" stop-color="#60d17e"/></linearGradient><linearGradient id="linear-gradient-3" x1="104.55" y1="183.79" x2="403.22" y2="183.79" gradientTransform="translate(-3.6 3.46) rotate(-0.07)" gradientUnits="userSpaceOnUse"><stop offset="0" stop-color="#429bcd"/><stop offset="0.99" stop-color="#439dcb"/><stop offset="1" stop-color="#439dcb"/><stop offset="1" stop-color="#449fc8"/><stop offset="1" stop-color="#48a6be"/><stop offset="1" stop-color="#4eb1ae"/><stop offset="1" stop-color="#57c096"/><stop offset="1" stop-color="#60d17e"/></linearGradient><linearGradient id="linear-gradient-4" x1="454.22" y1="336.55" x2="708.01" y2="82.77" gradientTransform="translate(-3.6 3.46) rotate(-0.07)" gradientUnits="userSpaceOnUse"><stop offset="0" stop-color="#325ca0"/><stop offset="1" stop-color="#429bcd"/></linearGradient><linearGradient id="linear-gradient-5" x1="198.46" y1="234.49" x2="373.66" y2="184.12" gradientTransform="translate(-3.6 3.46) rotate(-0.07)" gradientUnits="userSpaceOnUse"><stop offset="0" stop-color="#325ca0"/><stop offset="0.24" stop-color="#3465a6"/><stop offset="0.62" stop-color="#3a7db7"/><stop offset="1" stop-color="#429bcd"/></linearGradient><linearGradient id="linear-gradient-6" x1="261.09" y1="183.44" x2="495.53" y2="183.44" xlink:href="#linear-gradient-4"/></defs><title>logo_1</title><g id="Layer_2" data-name="Layer 2"><g id="Layer_1-2" data-name="Layer 1"><path class="cls-1" d="M77,0c3.23,0,6.05,3.73,6.06,7.48l.36,283c0,4.28-2.81,8-6,8l-71,.09c-3.23,0-6.05-3.74-6.06-8L0,7.59C0,3.84,2.81.1,6,.09Z"/><path class="cls-2" d="M258.23,199.27h.14v.13c0,1.16,0,2.31-.1,3.45,0-1.14,0-2.29,0-3.44Z"/><line class="cls-3" x1="179.19" y1="199.77" x2="179.19" y2="199.64"/><path class="cls-2" d="M258.37,199.27h-.14v0c0-1.19,0-2.37,0-3.55C258.34,196.86,258.37,198.06,258.37,199.27Z"/><path class="cls-4" d="M179.17,187l-78,.23c.09,69.19,47.34,115.51,117.73,115.42,31.68,0,58.65-9.47,78.72-26.18,23.76-19.78,37.85-49.74,38.67-86.38h0c0-1.18,0-2.37,0-3.55h-.14l-77.85.23h-.14c0,1.16,0,2.3,0,3.44v.08c-1.38,24.35-16.95,40.36-39.43,40.39-23.6,0-39.62-17.55-39.65-43.54Z"/><path class="cls-5" d="M493.36,185.86c.09,68-44.88,113.89-112.61,116l29-37.78-29.23-34.36c21-2.19,34.9-19.17,34.87-43.79,0-26-16.06-43.57-39.65-43.54-22.51,0-38.09,16.08-39.44,40.47-.93-36.65-15.29-66.61-39.38-86.26C317,79.9,344,70.47,375.64,70.43,446,70.34,493.27,116.67,493.36,185.86Z"/><path class="cls-6" d="M400,264.35l-29.38,38.3a107.2,107.2,0,0,1-34.72-6.23h0A129.59,129.59,0,0,1,298.17,276a113.54,113.54,0,0,1-15.78-15,98.57,98.57,0,0,1-24.49-67q0-3.65.31-7.44v0c0-1.19,0-2.38,0-3.55h0c-1.44-24-17-40-39.53-39.95-23.56,0-39.52,17.58-39.53,43.91l-78,.24c-.09-69.59,47-116,117.43-116.14,31.42,0,58.23,9.17,78.29,25.54,24.1,19.66,38.45,49.61,39.38,86.26,0,1.2,0,2.41,0,3.62a62.14,62.14,0,0,0,1.12,12c1.9,9.49,6.06,16.41,11.45,21.27a38.79,38.79,0,0,0,21,9.3Z"/><path class="cls-7" d="M574.28,92.59c15-15.88,40.35-26.21,66.88-26.25,62.56-.08,104.6,45.84,104.68,114.82.09,68.58-41.83,114.62-104.39,114.7-18.61,0-36.43-5.51-48.32-15l.15,116.94c0,2.78-2.77,5.56-5.93,5.56l-69.69.09c-3.17,0-5.94-2.77-5.94-5.54l-.41-319.5a6.09,6.09,0,0,1,5.93-6L562,72.39c2.77,0,4.75,2.37,6.34,5.94ZM593,205.94a33.39,33.39,0,0,0,31.31,21.76c21.78,0,36.41-18.28,36.37-46,0-28.54-14.71-47.55-36.49-47.52A33.39,33.39,0,0,0,593,156Z"/><path class="cls-8" d="M178.94,187.3c0,25.92,16,43.45,39.52,43.42s39.4-17.55,39.42-43.78l77.19.1c.09,69.38-46.35,115.35-116.52,115.44S101.28,256.38,101.19,187.4"/><path class="cls-9" d="M374.81,71c-31.6,0-58.49,9.45-78.5,26.12-23.72,19.74-37.78,49.67-38.54,86.29,0,1.12,0,2.24,0,3.37,0,.24,0,.48,0,.71.4,68.35,47.12,114.14,116.68,114.34h.68c70.17-.09,117.16-46.39,117.07-115.77C492.08,117.09,445,70.9,374.81,71Zm.2,159.09h-.61c-23.2-.26-38.89-17.71-38.92-43.39,0-1.1,0-2.2.1-3.27,1.22-24.5,16.79-40.61,39.32-40.64,23.53,0,39.49,17.48,39.52,43.4C414.45,212.47,398.54,230,375,230.07Z"/><path class="cls-10" d="M404.85,265.49l-30.28,36.34-.08.06-.08-.08c-69.25-.2-115.82-43.43-116.62-111.27,0-.45,0-.9,0-1.35s0-1.55,0-2.07,0-.8,0-1.2c0-.86,0-1.7-.11-2.54-1.35-24-16.94-40-39.41-40-23.48,0-39.39,17.86-39.41,44.1l-77.75-.09C101.1,118,148.08,71.72,218.25,71.63c31.32,0,58,9.15,78,25.48,24.08,19.62,38.41,49.6,39.27,86.29-.07,1.06-.1,2.17-.1,3.27,0,25.68,15.73,43.13,38.92,43.39Z"/><path class="cls-1" d="M214.3,228.69l.09,69.93c-65.92-2-109.81-46.29-109.89-111.82l76-.1C180.53,210.11,194,226.47,214.3,228.69Z"/><path class="cls-1" d="M214.1,75.52l.09,69.21c-20.27,2.27-33.67,18.73-33.68,42.15l-76-.09C104.41,121.65,148.19,77.64,214.1,75.52Z"/><path class="cls-11" d="M218.15,231.53h-.61c-23.34-.27-39.12-18-39.16-44,0-1.12,0-2.24.1-3.32C179.71,159.33,195.36,143,218,143c23.67,0,39.72,17.74,39.76,44,0,26.69-16,44.51-39.64,44.54"/><text class="cls-12" transform="translate(1.6 365.38) scale(0.98 1)"><tspan class="cls-13">t</tspan><tspan class="cls-14" x="12.64" y="0">e</tspan><tspan class="cls-15" x="31.03" y="0">xtbook </tspan><tspan class="cls-14" x="148.34" y="0">e</tspan><tspan class="cls-16" x="166.73" y="0">x</tspan><tspan x="183.68" y="0">chan</tspan><tspan class="cls-17" x="257.49" y="0">g</tspan><tspan x="275.58" y="0">e </tspan><tspan class="cls-18" x="303.11" y="0">f</tspan><tspan x="314.97" y="0">o</tspan><tspan class="cls-19" x="335" y="0">r</tspan><tspan class="cls-20" x="347.16" y="0" xml:space="preserve"> stude</tspan><tspan class="cls-14" x="442.18" y="0">n</tspan><tspan x="461.62" y="0">ts</tspan></text></g></g></svg>