<svg xmlns="http://www.w3.org/2000/svg" viewBox="0 0 550.73 362.71"><defs><style>.cls-1{fill:#e88154;}.cls-2{fill:#ddd;}.cls-3{fill:#ececec;}.cls-4{fill:#c6c6c6;}</style></defs><title>book1</title><g id="Layer_2" data-name="Layer 2"><g id="Layer_1-2" data-name="Layer 1"><path class="cls-1" d="M549.81,84.1,412.59,357.91a8.68,8.68,0,0,1-11.66,3.88L234.29,278.28l-60.1-30.12L4.8,163.27A8.68,8.68,0,0,1,.93,151.61L76.91,0H401.4l66.4,33.28,78.14,39.15A8.71,8.71,0,0,1,549.81,84.1Z"/><path class="cls-1" d="M373.75,0l-6,11.94-4.09,8.15L357.6,32.23l-4.09,8.15-6.08,12.14-4.09,8.15-6.08,12.14L333.18,81,327.09,93.1,323,101.25l-6.08,12.14-4.09,8.15-6.08,12.14-4.09,8.15L296.59,154l-4.09,8.15-6.08,12.14-4.08,8.15-6.09,12.14-4.08,8.15-6.09,12.14L262,223l-6.09,12.14-4.08,8.15-11.35,22.65-6.19,12.35c-25.54-.52-45.93-10-60.1-30.12l6.19-12.35,11.35-22.64,4.09-8.16,6.07-12.13h0l4.09-8.15h0l6.08-12.13,4.09-8.15,6.08-12.14,4.09-8.15L232.4,132l4.09-8.16,6.08-12.13,4.08-8.16h0l6.08-12.12h0l4.09-8.16,6.08-12.13L267,63l6.08-12.14,4.09-8.15,6.08-12.13,4.09-8.16,6.07-12.13,4.09-8.16L298.55,0Z"/><polygon class="cls-2" points="469.37 30.07 547.54 69.24 407.12 349.44 330.95 311.26 469.37 30.07"/><path class="cls-3" d="M469.38,30.07l-1.58,3.21L456.43,56.37l-4,8.19-6,12.18-4,8.18-6,12.18-4,8.18h0l-6,12.18-4,8.18-.45.91-1.2,2.44-.59,1.2-3.75,7.64h0l-4,8.17-6,12.18h0l-4,8.18h0l-6,12.18-4,8.18-6,12.18-4,8.18-6,12.18h0l-4,8.17h0l-6,12.19h0l-4,8.17h0l-4.48,9.08-1.35,2.74-.17.35h0l-4,8.18h0l-6,12.18-4,8.18L331,311.26h0l-90.47-45.33A77.7,77.7,0,0,1,218,263.16a65.39,65.39,0,0,1-24.21-12.78s0,0,0,0a78.65,78.65,0,0,1-13.43-14.54L94.74,192.89l-13.95-7,11.4-22.61,4.11-8.15L102.41,143l4.11-8.15,6.11-12.11,4.11-8.15,6.11-12.12L127,94.35l6.11-12.12,4.11-8.15L143.29,62l4.11-8.15,6.11-12.12,4.11-8.15,6.11-12.11,4.11-8.15,6.11-12.12L174.54,0H409.37Z"/><polygon class="cls-2" points="192.13 0 192.1 0.06 187.99 8.21 181.87 20.32 177.76 28.47 171.64 40.58 167.53 48.73 161.41 60.84 157.3 68.99 151.19 81.1 147.07 89.25 140.96 101.36 136.84 109.5 130.73 121.62 126.61 129.76 120.5 141.88 116.38 150.02 110.27 162.14 106.15 170.28 94.74 192.89 80.79 185.9 12.07 151.46 87.98 0 192.13 0"/><polygon class="cls-4" points="303.15 4.94 299.06 13.1 293.4 10.27 272.92 0 293.29 0 297.49 2.11 303.15 4.94"/><polygon class="cls-4" points="292.98 25.23 288.89 33.39 283.24 30.56 222.26 0 242.63 0 287.33 22.4 292.98 25.23"/><polygon class="cls-4" points="282.81 45.52 278.73 53.68 273.07 50.84 187.99 8.21 173.95 1.17 171.61 0 191.98 0 192.1 0.06 277.16 42.69 282.81 45.52"/><polygon class="cls-4" points="272.64 65.81 268.56 73.97 262.9 71.13 177.76 28.47 163.73 21.44 120.96 0 141.32 0 167.84 13.29 181.87 20.32 266.99 62.98 272.64 65.81"/><rect class="cls-4" x="97.97" y="47.19" width="171.55" height="9.12" transform="translate(42.66 -76.84) rotate(26.62)"/><rect class="cls-4" x="87.8" y="67.48" width="171.55" height="9.12" transform="translate(50.67 -70.13) rotate(26.62)"/><rect class="cls-4" x="77.63" y="87.77" width="171.55" height="9.12" transform="translate(58.68 -63.43) rotate(26.62)"/><rect class="cls-4" x="67.47" y="108.06" width="171.55" height="9.12" transform="translate(66.7 -56.72) rotate(26.62)"/><rect class="cls-4" x="57.3" y="128.35" width="171.55" height="9.12" transform="translate(74.71 -50.02) rotate(26.62)"/><rect class="cls-4" x="47.13" y="148.64" width="171.55" height="9.12" transform="translate(82.72 -43.31) rotate(26.62)"/><rect class="cls-4" x="36.96" y="168.93" width="171.55" height="9.12" transform="translate(90.74 -36.6) rotate(26.62)"/><rect class="cls-4" x="349.98" y="46.56" width="171.55" height="9.12" transform="translate(69.08 -189.81) rotate(26.62)"/><rect class="cls-4" x="339.81" y="66.85" width="171.55" height="9.12" transform="translate(77.09 -183.11) rotate(26.62)"/><rect class="cls-4" x="329.64" y="87.13" width="171.55" height="9.12" transform="translate(85.11 -176.4) rotate(26.62)"/><rect class="cls-4" x="319.48" y="107.42" width="171.55" height="9.12" transform="translate(93.12 -169.7) rotate(26.62)"/><rect class="cls-4" x="309.31" y="127.71" width="171.55" height="9.12" transform="translate(101.13 -162.99) rotate(26.62)"/><rect class="cls-4" x="299.14" y="148" width="171.55" height="9.12" transform="translate(109.15 -156.28) rotate(26.62)"/><rect class="cls-4" x="288.97" y="168.29" width="171.55" height="9.12" transform="translate(117.16 -149.58) rotate(26.62)"/><rect class="cls-4" x="278.8" y="188.58" width="171.55" height="9.12" transform="translate(125.17 -142.87) rotate(26.62)"/><rect class="cls-4" x="268.64" y="208.87" width="171.55" height="9.12" transform="translate(133.18 -136.17) rotate(26.62)"/><rect class="cls-4" x="258.47" y="229.16" width="171.55" height="9.12" transform="translate(141.2 -129.46) rotate(26.62)"/><rect class="cls-4" x="248.3" y="249.45" width="171.55" height="9.12" transform="translate(149.21 -122.75) rotate(26.62)"/><rect class="cls-4" x="238.13" y="269.74" width="171.55" height="9.12" transform="translate(157.22 -116.05) rotate(26.62)"/><path class="cls-2" d="M349.93,0,218,263.16a65.39,65.39,0,0,1-24.21-12.78s0,0,0,0L319.26,0Z"/></g></g></svg>