<svg xmlns="http://www.w3.org/2000/svg" viewBox="0 0 69.2 40.98"><defs><style>.cls-1{fill:#fff;}.cls-2{fill:none;stroke:#52b9d1;stroke-miterlimit:10;stroke-width:1.06px;}</style></defs><title>emblem_navbar</title><g id="Layer_2" data-name="Layer 2"><g id="Layer_1-2" data-name="Layer 1"><path class="cls-1" d="M27.71,22.74h0v0c0,.21,0,.41,0,.61,0-.2,0-.4,0-.61Z"/><line class="cls-1" x1="13.76" y1="22.82" x2="13.76" y2="22.8"/><path class="cls-1" d="M27.74,22.73h0c0-.21,0-.42,0-.63C27.73,22.31,27.74,22.52,27.74,22.73Z"/><path class="cls-1" d="M13.76,20.57,0,20.61C0,32.81,8.35,41,20.77,41a21.37,21.37,0,0,0,13.89-4.62c4.19-3.49,6.68-8.78,6.82-15.24h0c0-.21,0-.42,0-.63h0l-13.74,0h0c0,.2,0,.41,0,.61h0c-.24,4.3-3,7.12-7,7.13-4.16,0-7-3.1-7-7.68Z"/><path class="cls-1" d="M69.2,20.37c0,12-7.92,20.1-19.87,20.47l5.12-6.67-5.16-6.06c3.71-.39,6.16-3.38,6.15-7.73,0-4.59-2.83-7.69-7-7.68-4,0-6.72,2.84-7,7.14-.16-6.47-2.7-11.75-6.95-15.22A21.38,21.38,0,0,1,48.43,0C60.85,0,69.19,8.16,69.2,20.37Z"/><path class="cls-1" d="M52.72,34.22,47.54,41a18.92,18.92,0,0,1-6.13-1.1h0a22.87,22.87,0,0,1-6.64-3.6A20,20,0,0,1,32,33.63a17.39,17.39,0,0,1-4.32-11.82q0-.64.05-1.31h0c0-.21,0-.42,0-.63h0c-.25-4.24-3-7.05-7-7-4.16,0-7,3.1-7,7.75L0,20.61C0,8.33,8.3.13,20.72.11A21.44,21.44,0,0,1,34.54,4.62c4.25,3.47,6.79,8.75,6.95,15.22,0,.21,0,.42,0,.64a11,11,0,0,0,.2,2.11,6.66,6.66,0,0,0,2,3.75A6.84,6.84,0,0,0,47.42,28Z"/><path class="cls-2" d="M32.58,2.4C33.95,3.58,41.51,8.51,42,20.86"/><path class="cls-2" d="M27.16,19.71c.35,4.06.57,13.51,10.83,19.64"/></g></g></svg>