<svg xmlns="http://www.w3.org/2000/svg" viewBox="0 0 306.48 418.18"><defs><style>.cls-1{fill:#606060;}.cls-2{fill:#565656;}.cls-3{fill:#3d3d3d;}.cls-4{fill:#52b9d1;}</style></defs><title>book2</title><g id="Layer_2" data-name="Layer 2"><g id="Layer_1-2" data-name="Layer 1"><path class="cls-1" d="M305.77,290.9,152.19,3.81C149.65-.94,141-1.29,133,3l-7.86,4.21L116.18,12,0,74.16V177.88L119.16,400.63l.48.89v0l163.74-87.61,1.94-1,10.43-5.58C303.83,303,308.31,295.65,305.77,290.9Z"/><polygon class="cls-2" points="209.65 353.2 124.18 397.99 119.16 400.63 107.59 406.69 0 201.43 0 74.79 49.99 48.59 75.01 96.33 106.46 156.33 209.65 353.2"/><path class="cls-3" d="M124.64,398.85l-5,2.67L88.77,418c-1.65.88-5-2.26-7.58-7L0,259.27V165.86L124.18,398Z"/><rect class="cls-3" x="39.51" y="105.06" width="54.33" height="67.74" transform="translate(-56.88 46.83) rotate(-27.66)"/><rect class="cls-2" x="87.52" y="79.4" width="56.25" height="67.74" transform="translate(-39.36 66.64) rotate(-27.66)"/><rect class="cls-4" x="195.66" y="-10.22" width="10.12" height="345.2" transform="translate(-52.44 111.74) rotate(-27.66)"/></g></g></svg>