<svg xmlns="http://www.w3.org/2000/svg" viewBox="0 0 457.56 582.17"><defs><style>.cls-1{fill:#e88154;}.cls-2{fill:#d36b46;}.cls-3{fill:#efb745;}.cls-4{fill:#f8cc45;}.cls-5{fill:#3a9faf;}.cls-6{fill:#52b9d1;}</style></defs><title>book3</title><g id="Layer_2" data-name="Layer 2"><g id="Layer_1-2" data-name="Layer 1"><path class="cls-1" d="M56.88,241.65,207.16,138c6.89-4.75,15.11-4.78,18.36-.07L422,422.68c3.25,4.71.31,12.39-6.58,17.14L265.15,543.5"/><path class="cls-2" d="M269.36,540.6l-59.31,40.92c-2.72,1.88-7.56-.43-10.81-5.14L2.75,291.59c-3.25-4.71-3.69-10.06-1-11.93L61.1,238.74"/><path class="cls-3" d="M309,402.62,244.62,447c-2.95,2-8-.14-11.23-4.85L36.9,157.37c-3.25-4.71-3.5-10.19-.55-12.22l64.33-44.39"/><path class="cls-4" d="M100.69,100.76,242.05,3.23c6.48-4.47,14.37-4.27,17.62.44L456.16,288.45c3.25,4.71.64,12.16-5.84,16.63L309,402.62"/><polyline class="cls-5" points="70.09 121.87 53.34 133.43 143.02 263.41 149.15 236.97"/><polyline class="cls-6" points="149.15 236.97 176.82 240.73 86.84 110.32 70.09 121.87"/></g></g></svg>